<svg viewBox="0 0 100 100" xmlns="http://www.w3.org/2000/svg">
  <defs>
    <linearGradient id="greenGrad" x1="0%" y1="0%" x2="100%" y2="100%">
      <stop offset="0%" style="stop-color:#4ade80;stop-opacity:1" />
      <stop offset="100%" style="stop-color:#22c55e;stop-opacity:1" />
    </linearGradient>
  </defs>
  <rect x="0" y="0" width="100" height="100" rx="20" fill="#1a1a1a"/>
  <rect x="14" y="18" width="34" height="28" fill="none" stroke="#2e2e2e" stroke-width="1.2"/>
  <rect x="48" y="18" width="28" height="28" fill="none" stroke="#2e2e2e" stroke-width="1.2"/>
  <rect x="14" y="46" width="62" height="28" fill="none" stroke="#2e2e2e" stroke-width="1.2"/>
  <rect x="15" y="19" width="32" height="26" fill="#4ade80" opacity="0.15"/>
  <polyline points="20,32 29,42 45,22" fill="none" stroke="url(#greenGrad)" stroke-width="4" stroke-linecap="round" stroke-linejoin="round"/>
  <line x1="10" y1="14" x2="19" y2="14" stroke="#4ade80" stroke-width="1.8" opacity="0.7"/>
  <line x1="10" y1="14" x2="10" y2="23" stroke="#4ade80" stroke-width="1.8" opacity="0.7"/>
  <line x1="90" y1="14" x2="81" y2="14" stroke="#4ade80" stroke-width="1.8" opacity="0.7"/>
  <line x1="90" y1="14" x2="90" y2="23" stroke="#4ade80" stroke-width="1.8" opacity="0.7"/>
  <line x1="10" y1="86" x2="19" y2="86" stroke="#4ade80" stroke-width="1.8" opacity="0.7"/>
  <line x1="10" y1="86" x2="10" y2="77" stroke="#4ade80" stroke-width="1.8" opacity="0.7"/>
  <line x1="90" y1="86" x2="81" y2="86" stroke="#4ade80" stroke-width="1.8" opacity="0.7"/>
  <line x1="90" y1="86" x2="90" y2="77" stroke="#4ade80" stroke-width="1.8" opacity="0.7"/>
</svg>
